<mxfile host="app.diagrams.net" agent="Mozilla/5.0 (Macintosh; Intel Mac OS X 10_15_7) AppleWebKit/537.36 (KHTML, like Gecko) Chrome/136.0.0.0 Safari/537.36" version="27.1.4">
  <diagram name="Життєвий цикл лісової ділянки" id="0">
    <mxGraphModel dx="1577" dy="1017" grid="1" gridSize="10" guides="1" tooltips="1" connect="1" arrows="1" fold="1" page="1" pageScale="1" pageWidth="827" pageHeight="1169" math="0" shadow="0">
      <root>
        <mxCell id="0" />
        <mxCell id="1" parent="0" />
        <mxCell id="start" value="(*)" style="ellipse;whiteSpace=wrap;html=1;fillColor=#FFFFFF;" parent="1" vertex="1">
          <mxGeometry x="30" y="120" width="40" height="40" as="geometry" />
        </mxCell>
        <mxCell id="НоваДілянка" value="НоваДілянка OnEntry / зареєструватиДілянку() Do / очікуватиОбстеження() OnExit / статус := &#39;готова до обстеження&#39;" style="rounded=1;whiteSpace=wrap;html=1;fillColor=#DAE8FC;" parent="1" vertex="1">
          <mxGeometry x="150" y="20" width="200" height="100" as="geometry" />
        </mxCell>
        <mxCell id="Обстеження" value="Обстеження Do / провести_аналіз() OnExit / статус := &#39;обстежено&#39;" style="rounded=1;whiteSpace=wrap;html=1;fillColor=#E1D5E7;" parent="1" vertex="1">
          <mxGeometry x="80" y="180" width="200" height="100" as="geometry" />
        </mxCell>
        <mxCell id="Планування" value="Планування Do / розробити_план() OnExit / зберегти_план()" style="rounded=1;whiteSpace=wrap;html=1;fillColor=#FFE6CC;" parent="1" vertex="1">
          <mxGeometry x="370" y="20" width="200" height="100" as="geometry" />
        </mxCell>
        <mxCell id="Вирубка" value="Вирубка OnEntry / надіслати_завдання() Do / провести_вирубку() OnExit / оновити_статус()" style="rounded=1;whiteSpace=wrap;html=1;fillColor=#D5E8D4;" parent="1" vertex="1">
          <mxGeometry x="580" y="140" width="200" height="120" as="geometry" />
        </mxCell>
        <mxCell id="Моніторинг" value="Моніторинг Do / перевірити_ділянку() OnEvent виявлено_пожежу() / перейти_в_аварійний_стан() OnExit / оновити_звіт()" style="rounded=1;whiteSpace=wrap;html=1;fillColor=#F8CECC;" parent="1" vertex="1">
          <mxGeometry x="860" y="20" width="250" height="140" as="geometry" />
        </mxCell>
        <mxCell id="АварійнийСтан" value="АварійнийСтан OnEntry / оповіщення() Do / гасіння_вогню() OnExit / звіт_ліквідації()" style="rounded=1;whiteSpace=wrap;html=1;fillColor=#F5F5F5;" parent="1" vertex="1">
          <mxGeometry x="1150" y="200" width="250" height="120" as="geometry" />
        </mxCell>
        <mxCell id="Відновлення" value="Відновлення Do / посадити_ліс() OnExit / оновити_карту()" style="rounded=1;whiteSpace=wrap;html=1;fillColor=#FFF2CC;" parent="1" vertex="1">
          <mxGeometry x="885" y="220" width="200" height="100" as="geometry" />
        </mxCell>
        <mxCell id="end" value="(*)" style="ellipse;whiteSpace=wrap;html=1;fillColor=#FFFFFF;" parent="1" vertex="1">
          <mxGeometry x="1255" y="20" width="40" height="40" as="geometry" />
        </mxCell>
        <mxCell id="e1" value="створено" style="edgeStyle=orthogonalEdgeStyle;endArrow=block;" parent="1" source="start" target="НоваДілянка" edge="1">
          <mxGeometry relative="1" as="geometry" />
        </mxCell>
        <mxCell id="e2" value="додано до плану" style="edgeStyle=orthogonalEdgeStyle;endArrow=block;" parent="1" source="НоваДілянка" target="Обстеження" edge="1">
          <mxGeometry relative="1" as="geometry" />
        </mxCell>
        <mxCell id="e3" value="[станЗдоров’я == &#39;добрий&#39;] / передати_в_план" style="edgeStyle=orthogonalEdgeStyle;endArrow=block;" parent="1" source="Обстеження" target="Планування" edge="1">
          <mxGeometry relative="1" as="geometry" />
        </mxCell>
        <mxCell id="e4" value="план_затверджено()" style="edgeStyle=orthogonalEdgeStyle;endArrow=block;" parent="1" source="Планування" target="Вирубка" edge="1">
          <mxGeometry relative="1" as="geometry" />
        </mxCell>
        <mxCell id="e5" value="завершено()" style="edgeStyle=orthogonalEdgeStyle;endArrow=block;" parent="1" source="Вирубка" target="Моніторинг" edge="1">
          <mxGeometry relative="1" as="geometry" />
        </mxCell>
        <mxCell id="e6" value="виявлено_пожежу()" style="edgeStyle=orthogonalEdgeStyle;endArrow=block;" parent="1" source="Моніторинг" target="АварійнийСтан" edge="1">
          <mxGeometry relative="1" as="geometry" />
        </mxCell>
        <mxCell id="e7" value="усунено()" style="edgeStyle=orthogonalEdgeStyle;endArrow=block;" parent="1" source="АварійнийСтан" target="Відновлення" edge="1">
          <mxGeometry relative="1" as="geometry" />
        </mxCell>
        <mxCell id="e8" value="завершено()" style="edgeStyle=orthogonalEdgeStyle;endArrow=block;" parent="1" source="Відновлення" target="Моніторинг" edge="1">
          <mxGeometry relative="1" as="geometry" />
        </mxCell>
        <mxCell id="e9" value="кінець_життєвого_циклу" style="edgeStyle=orthogonalEdgeStyle;endArrow=block;" parent="1" source="Моніторинг" target="end" edge="1">
          <mxGeometry relative="1" as="geometry" />
        </mxCell>
      </root>
    </mxGraphModel>
  </diagram>
</mxfile>
